<svg width="162" height="212" viewBox="0 0 162 212" fill="none" xmlns="http://www.w3.org/2000/svg">
    <rect x="56" width="50" height="50" rx="5" fill="#2F9E41" />
    <rect x="112" width="50" height="50" rx="5" fill="#2F9E41" />
    <rect y="54" width="50" height="50" rx="5" fill="#2F9E41" />
    <rect x="56" y="54" width="50" height="50" rx="5" fill="#2F9E41" />
    <rect width="50" height="50" rx="25" fill="#CD191E" />
    <rect x="56" width="50" height="50" rx="5" fill="#2F9E41" />
    <rect x="112" width="50" height="50" rx="5" fill="#2F9E41" />
    <rect y="54" width="50" height="50" rx="5" fill="#2F9E41" />
    <rect x="56" y="54" width="50" height="50" rx="5" fill="#2F9E41" />
    <rect y="108" width="50" height="50" rx="5" fill="#2F9E41" />
    <rect x="56" y="108" width="50" height="50" rx="5" fill="#2F9E41" />
    <rect x="112" y="108" width="50" height="50" rx="5" fill="#2F9E41" />
    <rect y="162" width="50" height="50" rx="5" fill="#2F9E41" />
    <rect x="56" y="162" width="50" height="50" rx="5" fill="#2F9E41" />
    <rect y="108" width="50" height="50" rx="5" fill="#2F9E41" />
    <rect x="56" y="108" width="50" height="50" rx="5" fill="#2F9E41" />
    <rect x="112" y="108" width="50" height="50" rx="5" fill="#2F9E41" />
    <rect y="162" width="50" height="50" rx="5" fill="#2F9E41" />
    <rect x="56" y="162" width="50" height="50" rx="5" fill="#2F9E41" />
</svg>